<?xml version="1.0" encoding="UTF-8" standalone="no"?>
<!DOCTYPE svg PUBLIC "-//W3C//DTD SVG 1.1//EN"
 "http://www.w3.org/Graphics/SVG/1.1/DTD/svg11.dtd">
<!-- Generated by graphviz version 2.38.0 (20140413.2041)
 -->
<!-- Title: G Pages: 1 -->
<svg width="1501pt" height="638pt"
 viewBox="0.00 0.00 1501.00 638.00" xmlns="http://www.w3.org/2000/svg" xmlns:xlink="http://www.w3.org/1999/xlink">
<g id="graph0" class="graph" transform="scale(1 1) rotate(0) translate(4 634)">
<title>G</title>
<polygon fill="white" stroke="none" points="-4,4 -4,-634 1497,-634 1497,4 -4,4"/>
<g id="clust1" class="cluster"><title>cluster_root</title>
<g id="a_clust1"><a xlink:title="eventq_index&#61;0&#10;\full_system&#61;false&#10;\sim_quantum&#61;0&#10;\time_sync_enable&#61;false&#10;\time_sync_period&#61;100000000000&#10;\time_sync_spin_threshold&#61;100000000">
<path fill="#bab6ae" stroke="#000000" d="M20,-8C20,-8 1473,-8 1473,-8 1479,-8 1485,-14 1485,-20 1485,-20 1485,-610 1485,-610 1485,-616 1479,-622 1473,-622 1473,-622 20,-622 20,-622 14,-622 8,-616 8,-610 8,-610 8,-20 8,-20 8,-14 14,-8 20,-8"/>
<text text-anchor="middle" x="746.5" y="-606.8" font-family="Arial" font-size="14.00" fill="#000000">root </text>
<text text-anchor="middle" x="746.5" y="-591.8" font-family="Arial" font-size="14.00" fill="#000000">: Root</text>
</a>
</g>
</g>
<g id="clust2" class="cluster"><title>cluster_system</title>
<g id="a_clust2"><a xlink:title="boot_osflags&#61;a&#10;\cache_line_size&#61;64&#10;\eventq_index&#61;0&#10;\exit_on_work_items&#61;false&#10;\init_param&#61;0&#10;\kernel&#61;&#10;\kernel_addr_check&#61;true&#10;\kernel_extras&#61;&#10;\load_addr_mask&#61;18446744073709551615&#10;\load_offset&#61;0&#10;\mem_mode&#61;atomic&#10;\mem_ranges&#61;0:536870911&#10;\memories&#61;system.mem_ctrls&#10;\mmap_using_noreserve&#61;false&#10;\multi_thread&#61;false&#10;\num_work_ids&#61;16&#10;\readfile&#61;&#10;\redirect_paths&#61;system.redirect_paths0 system.redirect_paths1 system.redirect_paths2 system.redirect_paths3&#10;\symbolfile&#61;&#10;\thermal_components&#61;&#10;\thermal_model&#61;Null&#10;\work_begin_ckpt_count&#61;0&#10;\work_begin_cpu_id_exit&#61;&#45;1&#10;\work_begin_exit_count&#61;0&#10;\work_cpus_ckpt_count&#61;0&#10;\work_end_ckpt_count&#61;0&#10;\work_end_exit_count&#61;0&#10;\work_item_id&#61;&#45;1">
<path fill="#e4e7eb" stroke="#000000" d="M28,-16C28,-16 1465,-16 1465,-16 1471,-16 1477,-22 1477,-28 1477,-28 1477,-564 1477,-564 1477,-570 1471,-576 1465,-576 1465,-576 28,-576 28,-576 22,-576 16,-570 16,-564 16,-564 16,-28 16,-28 16,-22 22,-16 28,-16"/>
<text text-anchor="middle" x="746.5" y="-560.8" font-family="Arial" font-size="14.00" fill="#000000">system </text>
<text text-anchor="middle" x="746.5" y="-545.8" font-family="Arial" font-size="14.00" fill="#000000">: System</text>
</a>
</g>
</g>
<g id="clust3" class="cluster"><title>cluster_system_membus</title>
<g id="a_clust3"><a xlink:title="clk_domain&#61;system.clk_domain&#10;\default_p_state&#61;UNDEFINED&#10;\eventq_index&#61;0&#10;\forward_latency&#61;4&#10;\frontend_latency&#61;3&#10;\max_outstanding_snoops&#61;512&#10;\max_routing_table_size&#61;512&#10;\p_state_clk_gate_bins&#61;20&#10;\p_state_clk_gate_max&#61;1000000000000&#10;\p_state_clk_gate_min&#61;1000&#10;\point_of_coherency&#61;true&#10;\point_of_unification&#61;true&#10;\power_model&#61;&#10;\response_latency&#61;2&#10;\snoop_filter&#61;system.membus.snoop_filter&#10;\snoop_response_latency&#61;4&#10;\system&#61;system&#10;\use_default_range&#61;false&#10;\width&#61;16">
<path fill="#6f798c" stroke="#000000" d="M109,-354C109,-354 233,-354 233,-354 239,-354 245,-360 245,-366 245,-366 245,-433 245,-433 245,-439 239,-445 233,-445 233,-445 109,-445 109,-445 103,-445 97,-439 97,-433 97,-433 97,-366 97,-366 97,-360 103,-354 109,-354"/>
<text text-anchor="middle" x="171" y="-429.8" font-family="Arial" font-size="14.00" fill="#000000">membus </text>
<text text-anchor="middle" x="171" y="-414.8" font-family="Arial" font-size="14.00" fill="#000000">: SystemXBar</text>
</a>
</g>
</g>
<g id="clust9" class="cluster"><title>cluster_system_tol2bus</title>
<g id="a_clust9"><a xlink:title="clk_domain&#61;system.cpu_clk_domain&#10;\default_p_state&#61;UNDEFINED&#10;\eventq_index&#61;0&#10;\forward_latency&#61;0&#10;\frontend_latency&#61;1&#10;\max_outstanding_snoops&#61;512&#10;\max_routing_table_size&#61;512&#10;\p_state_clk_gate_bins&#61;20&#10;\p_state_clk_gate_max&#61;1000000000000&#10;\p_state_clk_gate_min&#61;1000&#10;\point_of_coherency&#61;false&#10;\point_of_unification&#61;true&#10;\power_model&#61;&#10;\response_latency&#61;1&#10;\snoop_filter&#61;system.tol2bus.snoop_filter&#10;\snoop_response_latency&#61;1&#10;\system&#61;system&#10;\use_default_range&#61;false&#10;\width&#61;32">
<path fill="#6f798c" stroke="#000000" d="M809,-354C809,-354 933,-354 933,-354 939,-354 945,-360 945,-366 945,-366 945,-433 945,-433 945,-439 939,-445 933,-445 933,-445 809,-445 809,-445 803,-445 797,-439 797,-433 797,-433 797,-366 797,-366 797,-360 803,-354 809,-354"/>
<text text-anchor="middle" x="871" y="-429.8" font-family="Arial" font-size="14.00" fill="#000000">tol2bus </text>
<text text-anchor="middle" x="871" y="-414.8" font-family="Arial" font-size="14.00" fill="#000000">: L2XBar</text>
</a>
</g>
</g>
<g id="clust13" class="cluster"><title>cluster_system_l2</title>
<g id="a_clust13"><a xlink:title="addr_ranges&#61;0:18446744073709551615&#10;\assoc&#61;8&#10;\clk_domain&#61;system.cpu_clk_domain&#10;\clusivity&#61;mostly_incl&#10;\compressor&#61;Null&#10;\data_latency&#61;20&#10;\default_p_state&#61;UNDEFINED&#10;\demand_mshr_reserve&#61;1&#10;\eventq_index&#61;0&#10;\is_read_only&#61;false&#10;\max_miss_count&#61;0&#10;\mshrs&#61;20&#10;\p_state_clk_gate_bins&#61;20&#10;\p_state_clk_gate_max&#61;1000000000000&#10;\p_state_clk_gate_min&#61;1000&#10;\power_model&#61;&#10;\prefetch_on_access&#61;false&#10;\prefetcher&#61;Null&#10;\replacement_policy&#61;system.l2.replacement_policy&#10;\response_latency&#61;20&#10;\sequential_access&#61;false&#10;\size&#61;2097152&#10;\system&#61;system&#10;\tag_latency&#61;20&#10;\tags&#61;system.l2.tags&#10;\tgts_per_mshr&#61;12&#10;\warmup_percentage&#61;0&#10;\write_allocator&#61;Null&#10;\write_buffers&#61;8&#10;\writeback_clean&#61;false">
<path fill="#bab6ae" stroke="#000000" d="M181,-163C181,-163 349,-163 349,-163 355,-163 361,-169 361,-175 361,-175 361,-242 361,-242 361,-248 355,-254 349,-254 349,-254 181,-254 181,-254 175,-254 169,-248 169,-242 169,-242 169,-175 169,-175 169,-169 175,-163 181,-163"/>
<text text-anchor="middle" x="265" y="-238.8" font-family="Arial" font-size="14.00" fill="#000000">l2 </text>
<text text-anchor="middle" x="265" y="-223.8" font-family="Arial" font-size="14.00" fill="#000000">: L2Cache</text>
</a>
</g>
</g>
<g id="clust18" class="cluster"><title>cluster_system_mem_ctrls</title>
<g id="a_clust18"><a xlink:title="IDD0&#61;0.055&#10;\IDD02&#61;0.0&#10;\IDD2N&#61;0.032&#10;\IDD2N2&#61;0.0&#10;\IDD2P0&#61;0.0&#10;\IDD2P02&#61;0.0&#10;\IDD2P1&#61;0.032&#10;\IDD2P12&#61;0.0&#10;\IDD3N&#61;0.038&#10;\IDD3N2&#61;0.0&#10;\IDD3P0&#61;0.0&#10;\IDD3P02&#61;0.0&#10;\IDD3P1&#61;0.038&#10;\IDD3P12&#61;0.0&#10;\IDD4R&#61;0.157&#10;\IDD4R2&#61;0.0&#10;\IDD4W&#61;0.125&#10;\IDD4W2&#61;0.0&#10;\IDD5&#61;0.235&#10;\IDD52&#61;0.0&#10;\IDD6&#61;0.02&#10;\IDD62&#61;0.0&#10;\VDD&#61;1.5&#10;\VDD2&#61;0.0&#10;\activation_limit&#61;4&#10;\addr_mapping&#61;RoRaBaCoCh&#10;\bank_groups_per_rank&#61;0&#10;\banks_per_rank&#61;8&#10;\burst_length&#61;8&#10;\clk_domain&#61;system.clk_domain&#10;\conf_table_reported&#61;true&#10;\default_p_state&#61;UNDEFINED&#10;\device_bus_width&#61;8&#10;\device_rowbuffer_size&#61;1024&#10;\device_size&#61;536870912&#10;\devices_per_rank&#61;8&#10;\dll&#61;true&#10;\enable_dram_powerdown&#61;false&#10;\eventq_index&#61;0&#10;\in_addr_map&#61;true&#10;\kvm_map&#61;true&#10;\max_accesses_per_row&#61;16&#10;\mem_sched_policy&#61;frfcfs&#10;\min_writes_per_switch&#61;16&#10;\null&#61;false&#10;\p_state_clk_gate_bins&#61;20&#10;\p_state_clk_gate_max&#61;1000000000000&#10;\p_state_clk_gate_min&#61;1000&#10;\page_policy&#61;open_adaptive&#10;\power_model&#61;&#10;\qos_masters&#61; &#160;&#160;&#160;&#160;&#160;&#160;&#160;&#160;&#160;&#160;&#160;&#160;&#160;&#160;&#10;\qos_policy&#61;Null&#10;\qos_priorities&#61;1&#10;\qos_priority_escalation&#61;false&#10;\qos_q_policy&#61;fifo&#10;\qos_syncro_scheduler&#61;false&#10;\qos_turnaround_policy&#61;Null&#10;\range&#61;0:536870911&#10;\ranks_per_channel&#61;2&#10;\read_buffer_size&#61;32&#10;\static_backend_latency&#61;10000&#10;\static_frontend_latency&#61;10000&#10;\tBURST&#61;5000&#10;\tCCD_L&#61;0&#10;\tCCD_L_WR&#61;0&#10;\tCK&#61;1250&#10;\tCL&#61;13750&#10;\tCS&#61;2500&#10;\tRAS&#61;35000&#10;\tRCD&#61;13750&#10;\tREFI&#61;7800000&#10;\tRFC&#61;260000&#10;\tRP&#61;13750&#10;\tRRD&#61;6000&#10;\tRRD_L&#61;0&#10;\tRTP&#61;7500&#10;\tRTW&#61;2500&#10;\tWR&#61;15000&#10;\tWTR&#61;7500&#10;\tXAW&#61;30000&#10;\tXP&#61;6000&#10;\tXPDLL&#61;0&#10;\tXS&#61;270000&#10;\tXSDLL&#61;0&#10;\write_buffer_size&#61;64&#10;\write_high_thresh_perc&#61;85&#10;\write_low_thresh_perc&#61;50">
<path fill="#5e5958" stroke="#000000" d="M36,-163C36,-163 149,-163 149,-163 155,-163 161,-169 161,-175 161,-175 161,-242 161,-242 161,-248 155,-254 149,-254 149,-254 36,-254 36,-254 30,-254 24,-248 24,-242 24,-242 24,-175 24,-175 24,-169 30,-163 36,-163"/>
<text text-anchor="middle" x="92.5" y="-238.8" font-family="Arial" font-size="14.00" fill="#000000">mem_ctrls </text>
<text text-anchor="middle" x="92.5" y="-223.8" font-family="Arial" font-size="14.00" fill="#000000">: DDR3_1600_8x8</text>
</a>
</g>
</g>
<g id="clust21" class="cluster"><title>cluster_system_cpu0</title>
<g id="a_clust21"><a xlink:title="branchPred&#61;Null&#10;\checker&#61;Null&#10;\clk_domain&#61;system.cpu_clk_domain&#10;\cpu_id&#61;0&#10;\default_p_state&#61;UNDEFINED&#10;\do_checkpoint_insts&#61;true&#10;\do_quiesce&#61;true&#10;\do_statistics_insts&#61;true&#10;\dtb&#61;system.cpu0.dtb&#10;\eventq_index&#61;0&#10;\function_trace&#61;false&#10;\function_trace_start&#61;0&#10;\interrupts&#61;system.cpu0.interrupts&#10;\isa&#61;system.cpu0.isa&#10;\itb&#61;system.cpu0.itb&#10;\max_insts_all_threads&#61;0&#10;\max_insts_any_thread&#61;1000000&#10;\numThreads&#61;1&#10;\p_state_clk_gate_bins&#61;20&#10;\p_state_clk_gate_max&#61;1000000000000&#10;\p_state_clk_gate_min&#61;1000&#10;\power_gating_on_idle&#61;false&#10;\power_model&#61;&#10;\profile&#61;0&#10;\progress_interval&#61;0&#10;\pwr_gating_latency&#61;300&#10;\simpoint_start_insts&#61;&#10;\simulate_data_stalls&#61;false&#10;\simulate_inst_stalls&#61;false&#10;\socket_id&#61;0&#10;\switched_out&#61;false&#10;\syscallRetryLatency&#61;10000&#10;\system&#61;system&#10;\tracer&#61;system.cpu0.tracer&#10;\wait_for_remote_gdb&#61;false&#10;\width&#61;1&#10;\workload&#61;system.cpu0.workload">
<path fill="#bbc6d9" stroke="#000000" d="M395,-24C395,-24 897,-24 897,-24 903,-24 909,-30 909,-36 909,-36 909,-334 909,-334 909,-340 903,-346 897,-346 897,-346 395,-346 395,-346 389,-346 383,-340 383,-334 383,-334 383,-36 383,-36 383,-30 389,-24 395,-24"/>
<text text-anchor="middle" x="646" y="-330.8" font-family="Arial" font-size="14.00" fill="#000000">cpu0 </text>
<text text-anchor="middle" x="646" y="-315.8" font-family="Arial" font-size="14.00" fill="#000000">: AtomicSimpleCPU</text>
</a>
</g>
</g>
<g id="clust22" class="cluster"><title>cluster_system_cpu0_icache</title>
<g id="a_clust22"><a xlink:title="addr_ranges&#61;0:18446744073709551615&#10;\assoc&#61;2&#10;\clk_domain&#61;system.cpu_clk_domain&#10;\clusivity&#61;mostly_incl&#10;\compressor&#61;Null&#10;\data_latency&#61;2&#10;\default_p_state&#61;UNDEFINED&#10;\demand_mshr_reserve&#61;1&#10;\eventq_index&#61;0&#10;\is_read_only&#61;true&#10;\max_miss_count&#61;0&#10;\mshrs&#61;4&#10;\p_state_clk_gate_bins&#61;20&#10;\p_state_clk_gate_max&#61;1000000000000&#10;\p_state_clk_gate_min&#61;1000&#10;\power_model&#61;&#10;\prefetch_on_access&#61;false&#10;\prefetcher&#61;Null&#10;\replacement_policy&#61;system.cpu0.icache.replacement_policy&#10;\response_latency&#61;2&#10;\sequential_access&#61;false&#10;\size&#61;32768&#10;\system&#61;system&#10;\tag_latency&#61;2&#10;\tags&#61;system.cpu0.icache.tags&#10;\tgts_per_mshr&#61;20&#10;\warmup_percentage&#61;0&#10;\write_allocator&#61;Null&#10;\write_buffers&#61;8&#10;\writeback_clean&#61;true">
<path fill="#bab6ae" stroke="#000000" d="M403,-32C403,-32 571,-32 571,-32 577,-32 583,-38 583,-44 583,-44 583,-111 583,-111 583,-117 577,-123 571,-123 571,-123 403,-123 403,-123 397,-123 391,-117 391,-111 391,-111 391,-44 391,-44 391,-38 397,-32 403,-32"/>
<text text-anchor="middle" x="487" y="-107.8" font-family="Arial" font-size="14.00" fill="#000000">icache </text>
<text text-anchor="middle" x="487" y="-92.8" font-family="Arial" font-size="14.00" fill="#000000">: L1_ICache</text>
</a>
</g>
</g>
<g id="clust26" class="cluster"><title>cluster_system_cpu0_dtb</title>
<g id="a_clust26"><a xlink:title="eventq_index&#61;0&#10;\is_stage2&#61;false&#10;\size&#61;64&#10;\sys&#61;system&#10;\walker&#61;system.cpu0.dtb.walker">
<path fill="#bab6ae" stroke="#000000" d="M769,-155C769,-155 889,-155 889,-155 895,-155 901,-161 901,-167 901,-167 901,-288 901,-288 901,-294 895,-300 889,-300 889,-300 769,-300 769,-300 763,-300 757,-294 757,-288 757,-288 757,-167 757,-167 757,-161 763,-155 769,-155"/>
<text text-anchor="middle" x="829" y="-284.8" font-family="Arial" font-size="14.00" fill="#000000">dtb </text>
<text text-anchor="middle" x="829" y="-269.8" font-family="Arial" font-size="14.00" fill="#000000">: ArmDTB</text>
</a>
</g>
</g>
<g id="clust27" class="cluster"><title>cluster_system_cpu0_dtb_walker</title>
<g id="a_clust27"><a xlink:title="clk_domain&#61;system.cpu_clk_domain&#10;\default_p_state&#61;UNDEFINED&#10;\eventq_index&#61;0&#10;\is_stage2&#61;false&#10;\num_squash_per_cycle&#61;2&#10;\p_state_clk_gate_bins&#61;20&#10;\p_state_clk_gate_max&#61;1000000000000&#10;\p_state_clk_gate_min&#61;1000&#10;\power_model&#61;&#10;\sys&#61;system">
<path fill="#9f9c95" stroke="#000000" d="M777,-163C777,-163 881,-163 881,-163 887,-163 893,-169 893,-175 893,-175 893,-242 893,-242 893,-248 887,-254 881,-254 881,-254 777,-254 777,-254 771,-254 765,-248 765,-242 765,-242 765,-175 765,-175 765,-169 771,-163 777,-163"/>
<text text-anchor="middle" x="829" y="-238.8" font-family="Arial" font-size="14.00" fill="#000000">walker </text>
<text text-anchor="middle" x="829" y="-223.8" font-family="Arial" font-size="14.00" fill="#000000">: ArmTableWalker</text>
</a>
</g>
</g>
<g id="clust32" class="cluster"><title>cluster_system_cpu0_itb</title>
<g id="a_clust32"><a xlink:title="eventq_index&#61;0&#10;\is_stage2&#61;false&#10;\size&#61;64&#10;\sys&#61;system&#10;\walker&#61;system.cpu0.itb.walker">
<path fill="#bab6ae" stroke="#000000" d="M617,-155C617,-155 737,-155 737,-155 743,-155 749,-161 749,-167 749,-167 749,-288 749,-288 749,-294 743,-300 737,-300 737,-300 617,-300 617,-300 611,-300 605,-294 605,-288 605,-288 605,-167 605,-167 605,-161 611,-155 617,-155"/>
<text text-anchor="middle" x="677" y="-284.8" font-family="Arial" font-size="14.00" fill="#000000">itb </text>
<text text-anchor="middle" x="677" y="-269.8" font-family="Arial" font-size="14.00" fill="#000000">: ArmITB</text>
</a>
</g>
</g>
<g id="clust33" class="cluster"><title>cluster_system_cpu0_itb_walker</title>
<g id="a_clust33"><a xlink:title="clk_domain&#61;system.cpu_clk_domain&#10;\default_p_state&#61;UNDEFINED&#10;\eventq_index&#61;0&#10;\is_stage2&#61;false&#10;\num_squash_per_cycle&#61;2&#10;\p_state_clk_gate_bins&#61;20&#10;\p_state_clk_gate_max&#61;1000000000000&#10;\p_state_clk_gate_min&#61;1000&#10;\power_model&#61;&#10;\sys&#61;system">
<path fill="#9f9c95" stroke="#000000" d="M625,-163C625,-163 729,-163 729,-163 735,-163 741,-169 741,-175 741,-175 741,-242 741,-242 741,-248 735,-254 729,-254 729,-254 625,-254 625,-254 619,-254 613,-248 613,-242 613,-242 613,-175 613,-175 613,-169 619,-163 625,-163"/>
<text text-anchor="middle" x="677" y="-238.8" font-family="Arial" font-size="14.00" fill="#000000">walker </text>
<text text-anchor="middle" x="677" y="-223.8" font-family="Arial" font-size="14.00" fill="#000000">: ArmTableWalker</text>
</a>
</g>
</g>
<g id="clust38" class="cluster"><title>cluster_system_cpu0_dcache</title>
<g id="a_clust38"><a xlink:title="addr_ranges&#61;0:18446744073709551615&#10;\assoc&#61;2&#10;\clk_domain&#61;system.cpu_clk_domain&#10;\clusivity&#61;mostly_incl&#10;\compressor&#61;Null&#10;\data_latency&#61;2&#10;\default_p_state&#61;UNDEFINED&#10;\demand_mshr_reserve&#61;1&#10;\eventq_index&#61;0&#10;\is_read_only&#61;false&#10;\max_miss_count&#61;0&#10;\mshrs&#61;4&#10;\p_state_clk_gate_bins&#61;20&#10;\p_state_clk_gate_max&#61;1000000000000&#10;\p_state_clk_gate_min&#61;1000&#10;\power_model&#61;&#10;\prefetch_on_access&#61;false&#10;\prefetcher&#61;Null&#10;\replacement_policy&#61;system.cpu0.dcache.replacement_policy&#10;\response_latency&#61;2&#10;\sequential_access&#61;false&#10;\size&#61;65536&#10;\system&#61;system&#10;\tag_latency&#61;2&#10;\tags&#61;system.cpu0.dcache.tags&#10;\tgts_per_mshr&#61;20&#10;\warmup_percentage&#61;0&#10;\write_allocator&#61;Null&#10;\write_buffers&#61;8&#10;\writeback_clean&#61;false">
<path fill="#bab6ae" stroke="#000000" d="M662,-32C662,-32 830,-32 830,-32 836,-32 842,-38 842,-44 842,-44 842,-111 842,-111 842,-117 836,-123 830,-123 830,-123 662,-123 662,-123 656,-123 650,-117 650,-111 650,-111 650,-44 650,-44 650,-38 656,-32 662,-32"/>
<text text-anchor="middle" x="746" y="-107.8" font-family="Arial" font-size="14.00" fill="#000000">dcache </text>
<text text-anchor="middle" x="746" y="-92.8" font-family="Arial" font-size="14.00" fill="#000000">: L1_DCache</text>
</a>
</g>
</g>
<g id="clust44" class="cluster"><title>cluster_system_cpu1</title>
<g id="a_clust44"><a xlink:title="branchPred&#61;Null&#10;\checker&#61;Null&#10;\clk_domain&#61;system.cpu_clk_domain&#10;\cpu_id&#61;1&#10;\default_p_state&#61;UNDEFINED&#10;\do_checkpoint_insts&#61;true&#10;\do_quiesce&#61;true&#10;\do_statistics_insts&#61;true&#10;\dtb&#61;system.cpu1.dtb&#10;\eventq_index&#61;0&#10;\function_trace&#61;false&#10;\function_trace_start&#61;0&#10;\interrupts&#61;system.cpu1.interrupts&#10;\isa&#61;system.cpu1.isa&#10;\itb&#61;system.cpu1.itb&#10;\max_insts_all_threads&#61;0&#10;\max_insts_any_thread&#61;1000000&#10;\numThreads&#61;1&#10;\p_state_clk_gate_bins&#61;20&#10;\p_state_clk_gate_max&#61;1000000000000&#10;\p_state_clk_gate_min&#61;1000&#10;\power_gating_on_idle&#61;false&#10;\power_model&#61;&#10;\profile&#61;0&#10;\progress_interval&#61;0&#10;\pwr_gating_latency&#61;300&#10;\simpoint_start_insts&#61;&#10;\simulate_data_stalls&#61;false&#10;\simulate_inst_stalls&#61;false&#10;\socket_id&#61;0&#10;\switched_out&#61;false&#10;\syscallRetryLatency&#61;10000&#10;\system&#61;system&#10;\tracer&#61;system.cpu1.tracer&#10;\wait_for_remote_gdb&#61;false&#10;\width&#61;1&#10;\workload&#61;system.cpu0.workload">
<path fill="#bbc6d9" stroke="#000000" d="M953,-24C953,-24 1455,-24 1455,-24 1461,-24 1467,-30 1467,-36 1467,-36 1467,-334 1467,-334 1467,-340 1461,-346 1455,-346 1455,-346 953,-346 953,-346 947,-346 941,-340 941,-334 941,-334 941,-36 941,-36 941,-30 947,-24 953,-24"/>
<text text-anchor="middle" x="1204" y="-330.8" font-family="Arial" font-size="14.00" fill="#000000">cpu1 </text>
<text text-anchor="middle" x="1204" y="-315.8" font-family="Arial" font-size="14.00" fill="#000000">: AtomicSimpleCPU</text>
</a>
</g>
</g>
<g id="clust45" class="cluster"><title>cluster_system_cpu1_icache</title>
<g id="a_clust45"><a xlink:title="addr_ranges&#61;0:18446744073709551615&#10;\assoc&#61;2&#10;\clk_domain&#61;system.cpu_clk_domain&#10;\clusivity&#61;mostly_incl&#10;\compressor&#61;Null&#10;\data_latency&#61;2&#10;\default_p_state&#61;UNDEFINED&#10;\demand_mshr_reserve&#61;1&#10;\eventq_index&#61;0&#10;\is_read_only&#61;true&#10;\max_miss_count&#61;0&#10;\mshrs&#61;4&#10;\p_state_clk_gate_bins&#61;20&#10;\p_state_clk_gate_max&#61;1000000000000&#10;\p_state_clk_gate_min&#61;1000&#10;\power_model&#61;&#10;\prefetch_on_access&#61;false&#10;\prefetcher&#61;Null&#10;\replacement_policy&#61;system.cpu1.icache.replacement_policy&#10;\response_latency&#61;2&#10;\sequential_access&#61;false&#10;\size&#61;32768&#10;\system&#61;system&#10;\tag_latency&#61;2&#10;\tags&#61;system.cpu1.icache.tags&#10;\tgts_per_mshr&#61;20&#10;\warmup_percentage&#61;0&#10;\write_allocator&#61;Null&#10;\write_buffers&#61;8&#10;\writeback_clean&#61;true">
<path fill="#bab6ae" stroke="#000000" d="M961,-32C961,-32 1129,-32 1129,-32 1135,-32 1141,-38 1141,-44 1141,-44 1141,-111 1141,-111 1141,-117 1135,-123 1129,-123 1129,-123 961,-123 961,-123 955,-123 949,-117 949,-111 949,-111 949,-44 949,-44 949,-38 955,-32 961,-32"/>
<text text-anchor="middle" x="1045" y="-107.8" font-family="Arial" font-size="14.00" fill="#000000">icache </text>
<text text-anchor="middle" x="1045" y="-92.8" font-family="Arial" font-size="14.00" fill="#000000">: L1_ICache</text>
</a>
</g>
</g>
<g id="clust49" class="cluster"><title>cluster_system_cpu1_dtb</title>
<g id="a_clust49"><a xlink:title="eventq_index&#61;0&#10;\is_stage2&#61;false&#10;\size&#61;64&#10;\sys&#61;system&#10;\walker&#61;system.cpu1.dtb.walker">
<path fill="#bab6ae" stroke="#000000" d="M1327,-155C1327,-155 1447,-155 1447,-155 1453,-155 1459,-161 1459,-167 1459,-167 1459,-288 1459,-288 1459,-294 1453,-300 1447,-300 1447,-300 1327,-300 1327,-300 1321,-300 1315,-294 1315,-288 1315,-288 1315,-167 1315,-167 1315,-161 1321,-155 1327,-155"/>
<text text-anchor="middle" x="1387" y="-284.8" font-family="Arial" font-size="14.00" fill="#000000">dtb </text>
<text text-anchor="middle" x="1387" y="-269.8" font-family="Arial" font-size="14.00" fill="#000000">: ArmDTB</text>
</a>
</g>
</g>
<g id="clust50" class="cluster"><title>cluster_system_cpu1_dtb_walker</title>
<g id="a_clust50"><a xlink:title="clk_domain&#61;system.cpu_clk_domain&#10;\default_p_state&#61;UNDEFINED&#10;\eventq_index&#61;0&#10;\is_stage2&#61;false&#10;\num_squash_per_cycle&#61;2&#10;\p_state_clk_gate_bins&#61;20&#10;\p_state_clk_gate_max&#61;1000000000000&#10;\p_state_clk_gate_min&#61;1000&#10;\power_model&#61;&#10;\sys&#61;system">
<path fill="#9f9c95" stroke="#000000" d="M1335,-163C1335,-163 1439,-163 1439,-163 1445,-163 1451,-169 1451,-175 1451,-175 1451,-242 1451,-242 1451,-248 1445,-254 1439,-254 1439,-254 1335,-254 1335,-254 1329,-254 1323,-248 1323,-242 1323,-242 1323,-175 1323,-175 1323,-169 1329,-163 1335,-163"/>
<text text-anchor="middle" x="1387" y="-238.8" font-family="Arial" font-size="14.00" fill="#000000">walker </text>
<text text-anchor="middle" x="1387" y="-223.8" font-family="Arial" font-size="14.00" fill="#000000">: ArmTableWalker</text>
</a>
</g>
</g>
<g id="clust55" class="cluster"><title>cluster_system_cpu1_itb</title>
<g id="a_clust55"><a xlink:title="eventq_index&#61;0&#10;\is_stage2&#61;false&#10;\size&#61;64&#10;\sys&#61;system&#10;\walker&#61;system.cpu1.itb.walker">
<path fill="#bab6ae" stroke="#000000" d="M1175,-155C1175,-155 1295,-155 1295,-155 1301,-155 1307,-161 1307,-167 1307,-167 1307,-288 1307,-288 1307,-294 1301,-300 1295,-300 1295,-300 1175,-300 1175,-300 1169,-300 1163,-294 1163,-288 1163,-288 1163,-167 1163,-167 1163,-161 1169,-155 1175,-155"/>
<text text-anchor="middle" x="1235" y="-284.8" font-family="Arial" font-size="14.00" fill="#000000">itb </text>
<text text-anchor="middle" x="1235" y="-269.8" font-family="Arial" font-size="14.00" fill="#000000">: ArmITB</text>
</a>
</g>
</g>
<g id="clust56" class="cluster"><title>cluster_system_cpu1_itb_walker</title>
<g id="a_clust56"><a xlink:title="clk_domain&#61;system.cpu_clk_domain&#10;\default_p_state&#61;UNDEFINED&#10;\eventq_index&#61;0&#10;\is_stage2&#61;false&#10;\num_squash_per_cycle&#61;2&#10;\p_state_clk_gate_bins&#61;20&#10;\p_state_clk_gate_max&#61;1000000000000&#10;\p_state_clk_gate_min&#61;1000&#10;\power_model&#61;&#10;\sys&#61;system">
<path fill="#9f9c95" stroke="#000000" d="M1183,-163C1183,-163 1287,-163 1287,-163 1293,-163 1299,-169 1299,-175 1299,-175 1299,-242 1299,-242 1299,-248 1293,-254 1287,-254 1287,-254 1183,-254 1183,-254 1177,-254 1171,-248 1171,-242 1171,-242 1171,-175 1171,-175 1171,-169 1177,-163 1183,-163"/>
<text text-anchor="middle" x="1235" y="-238.8" font-family="Arial" font-size="14.00" fill="#000000">walker </text>
<text text-anchor="middle" x="1235" y="-223.8" font-family="Arial" font-size="14.00" fill="#000000">: ArmTableWalker</text>
</a>
</g>
</g>
<g id="clust60" class="cluster"><title>cluster_system_cpu1_dcache</title>
<g id="a_clust60"><a xlink:title="addr_ranges&#61;0:18446744073709551615&#10;\assoc&#61;2&#10;\clk_domain&#61;system.cpu_clk_domain&#10;\clusivity&#61;mostly_incl&#10;\compressor&#61;Null&#10;\data_latency&#61;2&#10;\default_p_state&#61;UNDEFINED&#10;\demand_mshr_reserve&#61;1&#10;\eventq_index&#61;0&#10;\is_read_only&#61;false&#10;\max_miss_count&#61;0&#10;\mshrs&#61;4&#10;\p_state_clk_gate_bins&#61;20&#10;\p_state_clk_gate_max&#61;1000000000000&#10;\p_state_clk_gate_min&#61;1000&#10;\power_model&#61;&#10;\prefetch_on_access&#61;false&#10;\prefetcher&#61;Null&#10;\replacement_policy&#61;system.cpu1.dcache.replacement_policy&#10;\response_latency&#61;2&#10;\sequential_access&#61;false&#10;\size&#61;65536&#10;\system&#61;system&#10;\tag_latency&#61;2&#10;\tags&#61;system.cpu1.dcache.tags&#10;\tgts_per_mshr&#61;20&#10;\warmup_percentage&#61;0&#10;\write_allocator&#61;Null&#10;\write_buffers&#61;8&#10;\writeback_clean&#61;false">
<path fill="#bab6ae" stroke="#000000" d="M1220,-32C1220,-32 1388,-32 1388,-32 1394,-32 1400,-38 1400,-44 1400,-44 1400,-111 1400,-111 1400,-117 1394,-123 1388,-123 1388,-123 1220,-123 1220,-123 1214,-123 1208,-117 1208,-111 1208,-111 1208,-44 1208,-44 1208,-38 1214,-32 1220,-32"/>
<text text-anchor="middle" x="1304" y="-107.8" font-family="Arial" font-size="14.00" fill="#000000">dcache </text>
<text text-anchor="middle" x="1304" y="-92.8" font-family="Arial" font-size="14.00" fill="#000000">: L1_DCache</text>
</a>
</g>
</g>
<!-- system_system_port -->
<g id="node1" class="node"><title>system_system_port</title>
<path fill="#b6b8bc" stroke="#000000" d="M174.5,-493.5C174.5,-493.5 245.5,-493.5 245.5,-493.5 251.5,-493.5 257.5,-499.5 257.5,-505.5 257.5,-505.5 257.5,-517.5 257.5,-517.5 257.5,-523.5 251.5,-529.5 245.5,-529.5 245.5,-529.5 174.5,-529.5 174.5,-529.5 168.5,-529.5 162.5,-523.5 162.5,-517.5 162.5,-517.5 162.5,-505.5 162.5,-505.5 162.5,-499.5 168.5,-493.5 174.5,-493.5"/>
<text text-anchor="middle" x="210" y="-507.8" font-family="Arial" font-size="14.00" fill="#000000">system_port</text>
</g>
<!-- system_membus_slave -->
<g id="node3" class="node"><title>system_membus_slave</title>
<path fill="#586070" stroke="#000000" d="M195,-362.5C195,-362.5 225,-362.5 225,-362.5 231,-362.5 237,-368.5 237,-374.5 237,-374.5 237,-386.5 237,-386.5 237,-392.5 231,-398.5 225,-398.5 225,-398.5 195,-398.5 195,-398.5 189,-398.5 183,-392.5 183,-386.5 183,-386.5 183,-374.5 183,-374.5 183,-368.5 189,-362.5 195,-362.5"/>
<text text-anchor="middle" x="210" y="-376.8" font-family="Arial" font-size="14.00" fill="#000000">slave</text>
</g>
<!-- system_system_port&#45;&gt;system_membus_slave -->
<g id="edge1" class="edge"><title>system_system_port&#45;&gt;system_membus_slave</title>
<path fill="none" stroke="black" d="M210,-493.37C210,-471.781 210,-434.412 210,-408.852"/>
<polygon fill="black" stroke="black" points="213.5,-408.701 210,-398.701 206.5,-408.701 213.5,-408.701"/>
</g>
<!-- system_membus_master -->
<g id="node2" class="node"><title>system_membus_master</title>
<path fill="#586070" stroke="#000000" d="M117,-362.5C117,-362.5 153,-362.5 153,-362.5 159,-362.5 165,-368.5 165,-374.5 165,-374.5 165,-386.5 165,-386.5 165,-392.5 159,-398.5 153,-398.5 153,-398.5 117,-398.5 117,-398.5 111,-398.5 105,-392.5 105,-386.5 105,-386.5 105,-374.5 105,-374.5 105,-368.5 111,-362.5 117,-362.5"/>
<text text-anchor="middle" x="135" y="-376.8" font-family="Arial" font-size="14.00" fill="#000000">master</text>
</g>
<!-- system_mem_ctrls_port -->
<g id="node8" class="node"><title>system_mem_ctrls_port</title>
<path fill="#4b4746" stroke="#000000" d="M111,-171.5C111,-171.5 141,-171.5 141,-171.5 147,-171.5 153,-177.5 153,-183.5 153,-183.5 153,-195.5 153,-195.5 153,-201.5 147,-207.5 141,-207.5 141,-207.5 111,-207.5 111,-207.5 105,-207.5 99,-201.5 99,-195.5 99,-195.5 99,-183.5 99,-183.5 99,-177.5 105,-171.5 111,-171.5"/>
<text text-anchor="middle" x="126" y="-185.8" font-family="Arial" font-size="14.00" fill="#000000">port</text>
</g>
<!-- system_membus_master&#45;&gt;system_mem_ctrls_port -->
<g id="edge2" class="edge"><title>system_membus_master&#45;&gt;system_mem_ctrls_port</title>
<path fill="none" stroke="black" d="M134.185,-362.394C132.62,-329.516 129.179,-257.261 127.295,-217.704"/>
<polygon fill="black" stroke="black" points="130.791,-217.526 126.819,-207.703 123.799,-217.859 130.791,-217.526"/>
</g>
<!-- system_l2_mem_side -->
<g id="node6" class="node"><title>system_l2_mem_side</title>
<path fill="#94918b" stroke="#000000" d="M189,-171.5C189,-171.5 249,-171.5 249,-171.5 255,-171.5 261,-177.5 261,-183.5 261,-183.5 261,-195.5 261,-195.5 261,-201.5 255,-207.5 249,-207.5 249,-207.5 189,-207.5 189,-207.5 183,-207.5 177,-201.5 177,-195.5 177,-195.5 177,-183.5 177,-183.5 177,-177.5 183,-171.5 189,-171.5"/>
<text text-anchor="middle" x="219" y="-185.8" font-family="Arial" font-size="14.00" fill="#000000">mem_side</text>
</g>
<!-- system_membus_slave&#45;&gt;system_l2_mem_side -->
<g id="edge3" class="edge"><title>system_membus_slave&#45;&gt;system_l2_mem_side</title>
<path fill="none" stroke="black" d="M211.302,-352.16C213.185,-312.613 216.615,-240.589 218.181,-207.703"/>
<polygon fill="black" stroke="black" points="207.794,-352.239 210.815,-362.394 214.786,-352.572 207.794,-352.239"/>
</g>
<!-- system_tol2bus_master -->
<g id="node4" class="node"><title>system_tol2bus_master</title>
<path fill="#586070" stroke="#000000" d="M817,-362.5C817,-362.5 853,-362.5 853,-362.5 859,-362.5 865,-368.5 865,-374.5 865,-374.5 865,-386.5 865,-386.5 865,-392.5 859,-398.5 853,-398.5 853,-398.5 817,-398.5 817,-398.5 811,-398.5 805,-392.5 805,-386.5 805,-386.5 805,-374.5 805,-374.5 805,-368.5 811,-362.5 817,-362.5"/>
<text text-anchor="middle" x="835" y="-376.8" font-family="Arial" font-size="14.00" fill="#000000">master</text>
</g>
<!-- system_l2_cpu_side -->
<g id="node7" class="node"><title>system_l2_cpu_side</title>
<path fill="#94918b" stroke="#000000" d="M290.5,-171.5C290.5,-171.5 341.5,-171.5 341.5,-171.5 347.5,-171.5 353.5,-177.5 353.5,-183.5 353.5,-183.5 353.5,-195.5 353.5,-195.5 353.5,-201.5 347.5,-207.5 341.5,-207.5 341.5,-207.5 290.5,-207.5 290.5,-207.5 284.5,-207.5 278.5,-201.5 278.5,-195.5 278.5,-195.5 278.5,-183.5 278.5,-183.5 278.5,-177.5 284.5,-171.5 290.5,-171.5"/>
<text text-anchor="middle" x="316" y="-185.8" font-family="Arial" font-size="14.00" fill="#000000">cpu_side</text>
</g>
<!-- system_tol2bus_master&#45;&gt;system_l2_cpu_side -->
<g id="edge4" class="edge"><title>system_tol2bus_master&#45;&gt;system_l2_cpu_side</title>
<path fill="none" stroke="black" d="M804.806,-379.263C706.729,-378.232 401.437,-372.874 367,-346 327.723,-315.348 318.325,-253.725 316.301,-217.944"/>
<polygon fill="black" stroke="black" points="319.79,-217.581 315.885,-207.732 312.795,-217.866 319.79,-217.581"/>
</g>
<!-- system_tol2bus_slave -->
<g id="node5" class="node"><title>system_tol2bus_slave</title>
<path fill="#586070" stroke="#000000" d="M895,-362.5C895,-362.5 925,-362.5 925,-362.5 931,-362.5 937,-368.5 937,-374.5 937,-374.5 937,-386.5 937,-386.5 937,-392.5 931,-398.5 925,-398.5 925,-398.5 895,-398.5 895,-398.5 889,-398.5 883,-392.5 883,-386.5 883,-386.5 883,-374.5 883,-374.5 883,-368.5 889,-362.5 895,-362.5"/>
<text text-anchor="middle" x="910" y="-376.8" font-family="Arial" font-size="14.00" fill="#000000">slave</text>
</g>
<!-- system_cpu0_icache_mem_side -->
<g id="node11" class="node"><title>system_cpu0_icache_mem_side</title>
<path fill="#94918b" stroke="#000000" d="M411,-40.5C411,-40.5 471,-40.5 471,-40.5 477,-40.5 483,-46.5 483,-52.5 483,-52.5 483,-64.5 483,-64.5 483,-70.5 477,-76.5 471,-76.5 471,-76.5 411,-76.5 411,-76.5 405,-76.5 399,-70.5 399,-64.5 399,-64.5 399,-52.5 399,-52.5 399,-46.5 405,-40.5 411,-40.5"/>
<text text-anchor="middle" x="441" y="-54.8" font-family="Arial" font-size="14.00" fill="#000000">mem_side</text>
</g>
<!-- system_tol2bus_slave&#45;&gt;system_cpu0_icache_mem_side -->
<g id="edge5" class="edge"><title>system_tol2bus_slave&#45;&gt;system_cpu0_icache_mem_side</title>
<path fill="none" stroke="black" d="M881.603,-357.2C879.121,-355.937 876.573,-354.842 874,-354 860.93,-349.723 388.645,-355.802 379,-346 364.115,-330.873 372.974,-175.349 379,-155 388.037,-124.484 410.23,-94.5792 425.456,-76.5863"/>
<polygon fill="black" stroke="black" points="879.845,-360.227 890.225,-362.354 883.437,-354.219 879.845,-360.227"/>
</g>
<!-- system_cpu0_dtb_walker_port -->
<g id="node13" class="node"><title>system_cpu0_dtb_walker_port</title>
<path fill="#7f7c77" stroke="#000000" d="M843,-171.5C843,-171.5 873,-171.5 873,-171.5 879,-171.5 885,-177.5 885,-183.5 885,-183.5 885,-195.5 885,-195.5 885,-201.5 879,-207.5 873,-207.5 873,-207.5 843,-207.5 843,-207.5 837,-207.5 831,-201.5 831,-195.5 831,-195.5 831,-183.5 831,-183.5 831,-177.5 837,-171.5 843,-171.5"/>
<text text-anchor="middle" x="858" y="-185.8" font-family="Arial" font-size="14.00" fill="#000000">port</text>
</g>
<!-- system_tol2bus_slave&#45;&gt;system_cpu0_dtb_walker_port -->
<g id="edge8" class="edge"><title>system_tol2bus_slave&#45;&gt;system_cpu0_dtb_walker_port</title>
<path fill="none" stroke="black" d="M902.617,-352.666C891.767,-313.229 871.82,-240.729 862.733,-207.703"/>
<polygon fill="black" stroke="black" points="899.266,-353.681 905.294,-362.394 906.015,-351.824 899.266,-353.681"/>
</g>
<!-- system_cpu0_itb_walker_port -->
<g id="node14" class="node"><title>system_cpu0_itb_walker_port</title>
<path fill="#7f7c77" stroke="#000000" d="M691,-171.5C691,-171.5 721,-171.5 721,-171.5 727,-171.5 733,-177.5 733,-183.5 733,-183.5 733,-195.5 733,-195.5 733,-201.5 727,-207.5 721,-207.5 721,-207.5 691,-207.5 691,-207.5 685,-207.5 679,-201.5 679,-195.5 679,-195.5 679,-183.5 679,-183.5 679,-177.5 685,-171.5 691,-171.5"/>
<text text-anchor="middle" x="706" y="-185.8" font-family="Arial" font-size="14.00" fill="#000000">port</text>
</g>
<!-- system_tol2bus_slave&#45;&gt;system_cpu0_itb_walker_port -->
<g id="edge7" class="edge"><title>system_tol2bus_slave&#45;&gt;system_cpu0_itb_walker_port</title>
<path fill="none" stroke="black" d="M881.11,-357.127C878.78,-355.923 876.398,-354.858 874,-354 850.297,-345.522 781.029,-361.25 761,-346 716.801,-312.347 708.006,-240.399 706.338,-207.523"/>
<polygon fill="black" stroke="black" points="879.387,-360.174 889.764,-362.315 882.987,-354.171 879.387,-360.174"/>
</g>
<!-- system_cpu0_dcache_mem_side -->
<g id="node15" class="node"><title>system_cpu0_dcache_mem_side</title>
<path fill="#94918b" stroke="#000000" d="M762,-40.5C762,-40.5 822,-40.5 822,-40.5 828,-40.5 834,-46.5 834,-52.5 834,-52.5 834,-64.5 834,-64.5 834,-70.5 828,-76.5 822,-76.5 822,-76.5 762,-76.5 762,-76.5 756,-76.5 750,-70.5 750,-64.5 750,-64.5 750,-52.5 750,-52.5 750,-46.5 756,-40.5 762,-40.5"/>
<text text-anchor="middle" x="792" y="-54.8" font-family="Arial" font-size="14.00" fill="#000000">mem_side</text>
</g>
<!-- system_tol2bus_slave&#45;&gt;system_cpu0_dcache_mem_side -->
<g id="edge6" class="edge"><title>system_tol2bus_slave&#45;&gt;system_cpu0_dcache_mem_side</title>
<path fill="none" stroke="black" d="M910.958,-352.164C912.369,-300.16 913.288,-189.128 897,-155 880.655,-120.753 845.978,-93.15 820.94,-76.5908"/>
<polygon fill="black" stroke="black" points="907.455,-352.216 910.656,-362.316 914.452,-352.424 907.455,-352.216"/>
</g>
<!-- system_cpu1_icache_mem_side -->
<g id="node19" class="node"><title>system_cpu1_icache_mem_side</title>
<path fill="#94918b" stroke="#000000" d="M969,-40.5C969,-40.5 1029,-40.5 1029,-40.5 1035,-40.5 1041,-46.5 1041,-52.5 1041,-52.5 1041,-64.5 1041,-64.5 1041,-70.5 1035,-76.5 1029,-76.5 1029,-76.5 969,-76.5 969,-76.5 963,-76.5 957,-70.5 957,-64.5 957,-64.5 957,-52.5 957,-52.5 957,-46.5 963,-40.5 969,-40.5"/>
<text text-anchor="middle" x="999" y="-54.8" font-family="Arial" font-size="14.00" fill="#000000">mem_side</text>
</g>
<!-- system_tol2bus_slave&#45;&gt;system_cpu1_icache_mem_side -->
<g id="edge9" class="edge"><title>system_tol2bus_slave&#45;&gt;system_cpu1_icache_mem_side</title>
<path fill="none" stroke="black" d="M914.118,-352.44C914.425,-350.262 914.723,-348.095 915,-346 926.197,-261.287 908.081,-235.408 937,-155 947.771,-125.052 969.516,-95.0008 984.172,-76.821"/>
<polygon fill="black" stroke="black" points="910.635,-352.073 912.654,-362.473 917.561,-353.083 910.635,-352.073"/>
</g>
<!-- system_cpu1_dtb_walker_port -->
<g id="node21" class="node"><title>system_cpu1_dtb_walker_port</title>
<path fill="#7f7c77" stroke="#000000" d="M1343,-171.5C1343,-171.5 1373,-171.5 1373,-171.5 1379,-171.5 1385,-177.5 1385,-183.5 1385,-183.5 1385,-195.5 1385,-195.5 1385,-201.5 1379,-207.5 1373,-207.5 1373,-207.5 1343,-207.5 1343,-207.5 1337,-207.5 1331,-201.5 1331,-195.5 1331,-195.5 1331,-183.5 1331,-183.5 1331,-177.5 1337,-171.5 1343,-171.5"/>
<text text-anchor="middle" x="1358" y="-185.8" font-family="Arial" font-size="14.00" fill="#000000">port</text>
</g>
<!-- system_tol2bus_slave&#45;&gt;system_cpu1_dtb_walker_port -->
<g id="edge12" class="edge"><title>system_tol2bus_slave&#45;&gt;system_cpu1_dtb_walker_port</title>
<path fill="none" stroke="black" d="M947.142,-378.6C1039.7,-376.04 1275.22,-367.47 1303,-346 1346.84,-312.118 1355.83,-240.615 1357.61,-207.721"/>
<polygon fill="black" stroke="black" points="946.999,-375.102 937.097,-378.869 947.187,-382.1 946.999,-375.102"/>
</g>
<!-- system_cpu1_itb_walker_port -->
<g id="node22" class="node"><title>system_cpu1_itb_walker_port</title>
<path fill="#7f7c77" stroke="#000000" d="M1191,-171.5C1191,-171.5 1221,-171.5 1221,-171.5 1227,-171.5 1233,-177.5 1233,-183.5 1233,-183.5 1233,-195.5 1233,-195.5 1233,-201.5 1227,-207.5 1221,-207.5 1221,-207.5 1191,-207.5 1191,-207.5 1185,-207.5 1179,-201.5 1179,-195.5 1179,-195.5 1179,-183.5 1179,-183.5 1179,-177.5 1185,-171.5 1191,-171.5"/>
<text text-anchor="middle" x="1206" y="-185.8" font-family="Arial" font-size="14.00" fill="#000000">port</text>
</g>
<!-- system_tol2bus_slave&#45;&gt;system_cpu1_itb_walker_port -->
<g id="edge11" class="edge"><title>system_tol2bus_slave&#45;&gt;system_cpu1_itb_walker_port</title>
<path fill="none" stroke="black" d="M947.406,-379.955C1012.5,-379.932 1142.77,-376.014 1175,-346 1213.88,-309.79 1211.75,-239.796 1208.36,-207.538"/>
<polygon fill="black" stroke="black" points="947.178,-376.455 937.168,-379.927 947.159,-383.455 947.178,-376.455"/>
</g>
<!-- system_cpu1_dcache_mem_side -->
<g id="node23" class="node"><title>system_cpu1_dcache_mem_side</title>
<path fill="#94918b" stroke="#000000" d="M1320,-40.5C1320,-40.5 1380,-40.5 1380,-40.5 1386,-40.5 1392,-46.5 1392,-52.5 1392,-52.5 1392,-64.5 1392,-64.5 1392,-70.5 1386,-76.5 1380,-76.5 1380,-76.5 1320,-76.5 1320,-76.5 1314,-76.5 1308,-70.5 1308,-64.5 1308,-64.5 1308,-52.5 1308,-52.5 1308,-46.5 1314,-40.5 1320,-40.5"/>
<text text-anchor="middle" x="1350" y="-54.8" font-family="Arial" font-size="14.00" fill="#000000">mem_side</text>
</g>
<!-- system_tol2bus_slave&#45;&gt;system_cpu1_dcache_mem_side -->
<g id="edge10" class="edge"><title>system_tol2bus_slave&#45;&gt;system_cpu1_dcache_mem_side</title>
<path fill="none" stroke="black" d="M947.315,-378.595C1067.48,-375.5 1437.6,-364.497 1455,-346 1513.16,-284.161 1489.33,-232.636 1455,-155 1439.75,-120.52 1405.22,-93.1424 1379.91,-76.6937"/>
<polygon fill="black" stroke="black" points="947.043,-375.1 937.135,-378.853 947.22,-382.098 947.043,-375.1"/>
</g>
<!-- system_cpu0_icache_port -->
<g id="node9" class="node"><title>system_cpu0_icache_port</title>
<path fill="#959ead" stroke="#000000" d="M403.5,-171.5C403.5,-171.5 470.5,-171.5 470.5,-171.5 476.5,-171.5 482.5,-177.5 482.5,-183.5 482.5,-183.5 482.5,-195.5 482.5,-195.5 482.5,-201.5 476.5,-207.5 470.5,-207.5 470.5,-207.5 403.5,-207.5 403.5,-207.5 397.5,-207.5 391.5,-201.5 391.5,-195.5 391.5,-195.5 391.5,-183.5 391.5,-183.5 391.5,-177.5 397.5,-171.5 403.5,-171.5"/>
<text text-anchor="middle" x="437" y="-185.8" font-family="Arial" font-size="14.00" fill="#000000">icache_port</text>
</g>
<!-- system_cpu0_icache_cpu_side -->
<g id="node12" class="node"><title>system_cpu0_icache_cpu_side</title>
<path fill="#94918b" stroke="#000000" d="M512.5,-40.5C512.5,-40.5 563.5,-40.5 563.5,-40.5 569.5,-40.5 575.5,-46.5 575.5,-52.5 575.5,-52.5 575.5,-64.5 575.5,-64.5 575.5,-70.5 569.5,-76.5 563.5,-76.5 563.5,-76.5 512.5,-76.5 512.5,-76.5 506.5,-76.5 500.5,-70.5 500.5,-64.5 500.5,-64.5 500.5,-52.5 500.5,-52.5 500.5,-46.5 506.5,-40.5 512.5,-40.5"/>
<text text-anchor="middle" x="538" y="-54.8" font-family="Arial" font-size="14.00" fill="#000000">cpu_side</text>
</g>
<!-- system_cpu0_icache_port&#45;&gt;system_cpu0_icache_cpu_side -->
<g id="edge13" class="edge"><title>system_cpu0_icache_port&#45;&gt;system_cpu0_icache_cpu_side</title>
<path fill="none" stroke="black" d="M452.052,-171.265C463.305,-158.215 478.936,-139.739 492,-123 501.544,-110.771 511.706,-96.8471 520.044,-85.1602"/>
<polygon fill="black" stroke="black" points="523.097,-86.9065 526.025,-76.7244 517.386,-82.8579 523.097,-86.9065"/>
</g>
<!-- system_cpu0_dcache_port -->
<g id="node10" class="node"><title>system_cpu0_dcache_port</title>
<path fill="#959ead" stroke="#000000" d="M513,-171.5C513,-171.5 585,-171.5 585,-171.5 591,-171.5 597,-177.5 597,-183.5 597,-183.5 597,-195.5 597,-195.5 597,-201.5 591,-207.5 585,-207.5 585,-207.5 513,-207.5 513,-207.5 507,-207.5 501,-201.5 501,-195.5 501,-195.5 501,-183.5 501,-183.5 501,-177.5 507,-171.5 513,-171.5"/>
<text text-anchor="middle" x="549" y="-185.8" font-family="Arial" font-size="14.00" fill="#000000">dcache_port</text>
</g>
<!-- system_cpu0_dcache_cpu_side -->
<g id="node16" class="node"><title>system_cpu0_dcache_cpu_side</title>
<path fill="#94918b" stroke="#000000" d="M669.5,-40.5C669.5,-40.5 720.5,-40.5 720.5,-40.5 726.5,-40.5 732.5,-46.5 732.5,-52.5 732.5,-52.5 732.5,-64.5 732.5,-64.5 732.5,-70.5 726.5,-76.5 720.5,-76.5 720.5,-76.5 669.5,-76.5 669.5,-76.5 663.5,-76.5 657.5,-70.5 657.5,-64.5 657.5,-64.5 657.5,-52.5 657.5,-52.5 657.5,-46.5 663.5,-40.5 669.5,-40.5"/>
<text text-anchor="middle" x="695" y="-54.8" font-family="Arial" font-size="14.00" fill="#000000">cpu_side</text>
</g>
<!-- system_cpu0_dcache_port&#45;&gt;system_cpu0_dcache_cpu_side -->
<g id="edge14" class="edge"><title>system_cpu0_dcache_port&#45;&gt;system_cpu0_dcache_cpu_side</title>
<path fill="none" stroke="black" d="M568.388,-171.37C593.912,-148.817 638.927,-109.044 667.835,-83.5018"/>
<polygon fill="black" stroke="black" points="670.356,-85.9453 675.532,-76.7011 665.721,-80.6995 670.356,-85.9453"/>
</g>
<!-- system_cpu1_icache_port -->
<g id="node17" class="node"><title>system_cpu1_icache_port</title>
<path fill="#959ead" stroke="#000000" d="M961.5,-171.5C961.5,-171.5 1028.5,-171.5 1028.5,-171.5 1034.5,-171.5 1040.5,-177.5 1040.5,-183.5 1040.5,-183.5 1040.5,-195.5 1040.5,-195.5 1040.5,-201.5 1034.5,-207.5 1028.5,-207.5 1028.5,-207.5 961.5,-207.5 961.5,-207.5 955.5,-207.5 949.5,-201.5 949.5,-195.5 949.5,-195.5 949.5,-183.5 949.5,-183.5 949.5,-177.5 955.5,-171.5 961.5,-171.5"/>
<text text-anchor="middle" x="995" y="-185.8" font-family="Arial" font-size="14.00" fill="#000000">icache_port</text>
</g>
<!-- system_cpu1_icache_cpu_side -->
<g id="node20" class="node"><title>system_cpu1_icache_cpu_side</title>
<path fill="#94918b" stroke="#000000" d="M1070.5,-40.5C1070.5,-40.5 1121.5,-40.5 1121.5,-40.5 1127.5,-40.5 1133.5,-46.5 1133.5,-52.5 1133.5,-52.5 1133.5,-64.5 1133.5,-64.5 1133.5,-70.5 1127.5,-76.5 1121.5,-76.5 1121.5,-76.5 1070.5,-76.5 1070.5,-76.5 1064.5,-76.5 1058.5,-70.5 1058.5,-64.5 1058.5,-64.5 1058.5,-52.5 1058.5,-52.5 1058.5,-46.5 1064.5,-40.5 1070.5,-40.5"/>
<text text-anchor="middle" x="1096" y="-54.8" font-family="Arial" font-size="14.00" fill="#000000">cpu_side</text>
</g>
<!-- system_cpu1_icache_port&#45;&gt;system_cpu1_icache_cpu_side -->
<g id="edge15" class="edge"><title>system_cpu1_icache_port&#45;&gt;system_cpu1_icache_cpu_side</title>
<path fill="none" stroke="black" d="M1010.05,-171.265C1021.31,-158.215 1036.94,-139.739 1050,-123 1059.54,-110.771 1069.71,-96.8471 1078.04,-85.1602"/>
<polygon fill="black" stroke="black" points="1081.1,-86.9065 1084.03,-76.7244 1075.39,-82.8579 1081.1,-86.9065"/>
</g>
<!-- system_cpu1_dcache_port -->
<g id="node18" class="node"><title>system_cpu1_dcache_port</title>
<path fill="#959ead" stroke="#000000" d="M1071,-171.5C1071,-171.5 1143,-171.5 1143,-171.5 1149,-171.5 1155,-177.5 1155,-183.5 1155,-183.5 1155,-195.5 1155,-195.5 1155,-201.5 1149,-207.5 1143,-207.5 1143,-207.5 1071,-207.5 1071,-207.5 1065,-207.5 1059,-201.5 1059,-195.5 1059,-195.5 1059,-183.5 1059,-183.5 1059,-177.5 1065,-171.5 1071,-171.5"/>
<text text-anchor="middle" x="1107" y="-185.8" font-family="Arial" font-size="14.00" fill="#000000">dcache_port</text>
</g>
<!-- system_cpu1_dcache_cpu_side -->
<g id="node24" class="node"><title>system_cpu1_dcache_cpu_side</title>
<path fill="#94918b" stroke="#000000" d="M1227.5,-40.5C1227.5,-40.5 1278.5,-40.5 1278.5,-40.5 1284.5,-40.5 1290.5,-46.5 1290.5,-52.5 1290.5,-52.5 1290.5,-64.5 1290.5,-64.5 1290.5,-70.5 1284.5,-76.5 1278.5,-76.5 1278.5,-76.5 1227.5,-76.5 1227.5,-76.5 1221.5,-76.5 1215.5,-70.5 1215.5,-64.5 1215.5,-64.5 1215.5,-52.5 1215.5,-52.5 1215.5,-46.5 1221.5,-40.5 1227.5,-40.5"/>
<text text-anchor="middle" x="1253" y="-54.8" font-family="Arial" font-size="14.00" fill="#000000">cpu_side</text>
</g>
<!-- system_cpu1_dcache_port&#45;&gt;system_cpu1_dcache_cpu_side -->
<g id="edge16" class="edge"><title>system_cpu1_dcache_port&#45;&gt;system_cpu1_dcache_cpu_side</title>
<path fill="none" stroke="black" d="M1126.39,-171.37C1151.91,-148.817 1196.93,-109.044 1225.84,-83.5018"/>
<polygon fill="black" stroke="black" points="1228.36,-85.9453 1233.53,-76.7011 1223.72,-80.6995 1228.36,-85.9453"/>
</g>
</g>
</svg>
